<?xml version="1.0" standalone="no"?>
<!DOCTYPE svg PUBLIC "-//W3C//DTD SVG 20010904//EN"
 "http://www.w3.org/TR/2001/REC-SVG-20010904/DTD/svg10.dtd">
<svg version="1.0" xmlns="http://www.w3.org/2000/svg"
 width="240.000000pt" height="240.000000pt" viewBox="0 0 240.000000 240.000000"
 preserveAspectRatio="xMidYMid meet">
<metadata>
Created by potrace 1.11, written by Peter Selinger 2001-2013
</metadata>
<g transform="translate(0.000000,240.000000) scale(0.100000,-0.100000)"
fill="#000000" stroke="none">
<path d="M1286 1620 c-5 -11 -22 -15 -75 -14 -38 1 -73 4 -79 8 -13 8 -24 -69
-26 -169 0 -44 -5 -86 -10 -94 -6 -9 -5 -12 1 -8 5 3 8 -11 7 -36 -1 -23 -6
-43 -11 -44 -6 -2 -64 48 -131 112 -114 109 -152 134 -152 100 0 -8 52 -70
115 -138 108 -115 115 -124 109 -155 -6 -30 -4 -33 31 -48 l37 -15 -7 -67 c-7
-62 -10 -70 -46 -100 -84 -72 -20 -118 106 -76 29 10 49 24 52 35 3 12 14 19
28 19 20 0 23 -6 29 -77 7 -85 19 -103 66 -103 14 0 35 6 45 14 18 13 19 18 6
58 -7 23 -14 57 -16 73 -1 17 -5 38 -9 47 -5 11 2 37 19 72 24 49 27 66 28
178 2 106 0 123 -14 126 -10 2 -19 -5 -22 -18 -7 -28 -25 -25 -33 5 -3 14 -9
23 -13 21 -3 -2 -7 17 -8 42 -1 26 0 41 3 35 3 -7 11 -13 16 -13 6 0 9 3 5 6
-3 4 0 23 9 42 13 32 13 41 -1 81 -25 72 -52 119 -59 101z m-219 -452 c-3 -8
-6 -5 -6 6 -1 11 2 17 5 13 3 -3 4 -12 1 -19z"/>
</g>
</svg>
